<?xml version="1.0" standalone="no"?><!DOCTYPE svg PUBLIC "-//W3C//DTD SVG 1.1//EN" "http://www.w3.org/Graphics/SVG/1.1/DTD/svg11.dtd"><svg t="1642308872839" class="icon" viewBox="0 0 1024 1024" version="1.1" xmlns="http://www.w3.org/2000/svg" p-id="3842" width="64" height="64" xmlns:xlink="http://www.w3.org/1999/xlink"><defs><style type="text/css"></style></defs><path d="M51.2 512c0 254.976 205.824 460.8 460.8 460.8s460.8-205.824 460.8-460.8S766.976 51.2 512 51.2 51.2 257.024 51.2 512z" fill="#EBFBFF" p-id="3843"></path><path d="M350.208 345.088h290.816c92.16 1.024 174.08 105.472-1.024 177.152-1.024 45.056 0 0 0 22.528s-22.528 43.008-44.032 43.008c-21.504 0-181.248 1.024-201.728 0s-43.008-20.48-43.008-43.008c-1.024-29.696-1.024-199.68-1.024-199.68z m289.792 133.12s54.272-19.456 55.296-56.32c1.024-36.864-55.296-31.744-55.296-31.744v88.064zM281.6 614.4h448.512s-3.072 64.512-44.032 64.512H327.68c-41.984 0-46.08-64.512-46.08-64.512z" fill="#4DCBE8" p-id="3844"></path></svg>